# xmcd
#
# Track frame offsets: 
#        150
#        25775
#        46030
#        69359
#        86167
#        102254
#        116060
#        127866
#        149349
#        172264
#        189412
#        209435
#        228800
#        239384
#        257815
#        280592
#        296459
#
# Disc length: 4354 seconds
#
# Revision: 0
# Processed by: cddbd v1.5.2PL0 Copyright (c) Steve Scherf et al.
# Submitted via: ExactAudioCopy v1.2
#
DISCID=ef110011
DTITLE=Gary Clark, Jr. - This Land
DYEAR=2019
DGENRE=Blues
TTITLE0=This Land
TTITLE1=What About Us
TTITLE2=I Got My Eyes on You (Locked and Loaded)
TTITLE3=I Walk Alone
TTITLE4=Feelin' Like a Million
TTITLE5=Gotta Get Into Something
TTITLE6=Got to Get Up
TTITLE7=Feed the Babies
TTITLE8=Pearl Cadillac
TTITLE9=When I'm Gone
TTITLE10=The Guitar Man
TTITLE11=Low Down Rolling Stone
TTITLE12=The Governer
TTITLE13=Don't Wait Til Tomorrow
TTITLE14=Dirty Dishes Blues
TTITLE15=Highway 71
TTITLE16=Did Dat
EXTD=
EXTT0=
EXTT1=
EXTT2=
EXTT3=
EXTT4=
EXTT5=
EXTT6=
EXTT7=
EXTT8=
EXTT9=
EXTT10=
EXTT11=
EXTT12=
EXTT13=
EXTT14=
EXTT15=
EXTT16=
PLAYORDER=
